<?xml version="1.0" encoding="utf-8" standalone="no"?>
<!DOCTYPE svg PUBLIC "-//W3C//DTD SVG 1.1//EN"
  "http://www.w3.org/Graphics/SVG/1.1/DTD/svg11.dtd">
<svg xmlns:xlink="http://www.w3.org/1999/xlink" width="813.586689pt" height="1034.505812pt" viewBox="0 0 813.586689 1034.505812" xmlns="http://www.w3.org/2000/svg" version="1.1">
 <metadata>
  <rdf:RDF xmlns:dc="http://purl.org/dc/elements/1.1/" xmlns:cc="http://creativecommons.org/ns#" xmlns:rdf="http://www.w3.org/1999/02/22-rdf-syntax-ns#">
   <cc:Work>
    <dc:type rdf:resource="http://purl.org/dc/dcmitype/StillImage"/>
    <dc:date>2026-03-08T09:12:23.416649</dc:date>
    <dc:format>image/svg+xml</dc:format>
    <dc:creator>
     <cc:Agent>
      <dc:title>Matplotlib v3.10.8, https://matplotlib.org/</dc:title>
     </cc:Agent>
    </dc:creator>
   </cc:Work>
  </rdf:RDF>
 </metadata>
 <defs>
  <style type="text/css">*{stroke-linejoin: round; stroke-linecap: butt}</style>
 </defs>
 <g id="figure_1">
  <g id="patch_1">
   <path d="M 0 1034.505812 
L 813.586689 1034.505812 
L 813.586689 0 
L 0 0 
z
" style="fill: #ffffff"/>
  </g>
  <g id="axes_1">
   <g id="patch_2">
    <path d="M 20.550391 299.888372 
L 381.210941 299.888372 
L 381.210941 7.2 
L 20.550391 7.2 
z
" style="fill: #ffffff"/>
   </g>
   <g id="line2d_1">
    <path d="M 20.550391 76.067852 
L 381.210941 76.067852 
" clip-path="url(#pc2d90361cb)" style="fill: none; stroke: #c9c9c9; stroke-width: 0.8; stroke-linecap: square"/>
   </g>
   <g id="line2d_2">
    <path d="M 20.550391 234.463912 
L 381.210941 234.463912 
" clip-path="url(#pc2d90361cb)" style="fill: none; stroke: #c9c9c9; stroke-width: 0.8; stroke-linecap: square"/>
   </g>
   <g id="matplotlib.axis_1">
    <g id="xtick_1">
     <g id="line2d_3">
      <defs>
       <path id="mec20a289d0" d="M 0 0 
L 0 3 
" style="stroke: #222222; stroke-width: 0.8"/>
      </defs>
      <g>
       <use xlink:href="#mec20a289d0" x="20.550391" y="299.888372" style="fill: #222222; stroke: #222222; stroke-width: 0.8"/>
      </g>
     </g>
     <g id="text_1">
      <text style="font-size: 9.1px; font-family: 'Helvetica', 'Arial', 'DejaVu Sans', sans-serif; text-anchor: middle" x="20.550391" y="312.9162" transform="rotate(-0 20.550391 312.9162)">0</text>
     </g>
    </g>
    <g id="xtick_2">
     <g id="line2d_4">
      <g>
       <use xlink:href="#mec20a289d0" x="110.715528" y="299.888372" style="fill: #222222; stroke: #222222; stroke-width: 0.8"/>
      </g>
     </g>
     <g id="text_2">
      <text style="font-size: 9.1px; font-family: 'Helvetica', 'Arial', 'DejaVu Sans', sans-serif; text-anchor: middle" x="110.715528" y="312.9162" transform="rotate(-0 110.715528 312.9162)">6</text>
     </g>
    </g>
    <g id="xtick_3">
     <g id="line2d_5">
      <g>
       <use xlink:href="#mec20a289d0" x="200.880666" y="299.888372" style="fill: #222222; stroke: #222222; stroke-width: 0.8"/>
      </g>
     </g>
     <g id="text_3">
      <text style="font-size: 9.1px; font-family: 'Helvetica', 'Arial', 'DejaVu Sans', sans-serif; text-anchor: middle" x="200.880666" y="312.9162" transform="rotate(-0 200.880666 312.9162)">12</text>
     </g>
    </g>
    <g id="xtick_4">
     <g id="line2d_6">
      <g>
       <use xlink:href="#mec20a289d0" x="291.045803" y="299.888372" style="fill: #222222; stroke: #222222; stroke-width: 0.8"/>
      </g>
     </g>
     <g id="text_4">
      <text style="font-size: 9.1px; font-family: 'Helvetica', 'Arial', 'DejaVu Sans', sans-serif; text-anchor: middle" x="291.045803" y="312.9162" transform="rotate(-0 291.045803 312.9162)">18</text>
     </g>
    </g>
    <g id="xtick_5">
     <g id="line2d_7">
      <g>
       <use xlink:href="#mec20a289d0" x="381.210941" y="299.888372" style="fill: #222222; stroke: #222222; stroke-width: 0.8"/>
      </g>
     </g>
     <g id="text_5">
      <text style="font-size: 9.1px; font-family: 'Helvetica', 'Arial', 'DejaVu Sans', sans-serif; text-anchor: middle" x="381.210941" y="312.9162" transform="rotate(-0 381.210941 312.9162)">24</text>
     </g>
    </g>
    <g id="text_6">
     <text style="font-size: 10.1px; font-family: 'Helvetica', 'Arial', 'DejaVu Sans', sans-serif; text-anchor: middle; fill: #222222" x="200.880666" y="326.211231" transform="rotate(-0 200.880666 326.211231)">Circadian time (0-24 h)</text>
    </g>
   </g>
   <g id="matplotlib.axis_2">
    <g id="text_7">
     <text style="font-size: 10.1px; font-family: 'Helvetica', 'Arial', 'DejaVu Sans', sans-serif; text-anchor: middle; fill: #222222" x="14.445172" y="153.544186" transform="rotate(-90 14.445172 153.544186)">Relative expression</text>
    </g>
   </g>
   <g id="line2d_8">
    <path d="M 20.550391 110.1557 
L 25.973858 106.787692 
L 31.397324 103.145646 
L 37.724703 98.593703 
L 44.052081 93.768327 
L 52.187281 87.257069 
L 63.034215 78.249633 
L 80.208527 63.957853 
L 88.343727 57.488219 
L 94.671105 52.707461 
L 100.998483 48.210267 
L 106.42195 44.622709 
L 111.845417 41.315661 
L 116.364973 38.79543 
L 120.884529 36.506148 
L 125.404084 34.462001 
L 129.92364 32.675655 
L 134.443196 31.158178 
L 138.962752 29.918973 
L 142.578396 29.133184 
L 146.194041 28.533554 
L 149.809686 28.122461 
L 153.42533 27.901537 
L 157.040975 27.871656 
L 160.656619 28.032938 
L 164.272264 28.384743 
L 167.887909 28.925676 
L 171.503553 29.65359 
L 176.023109 30.821959 
L 180.542665 32.270683 
L 185.062221 33.990786 
L 189.581776 35.971609 
L 194.101332 38.200879 
L 198.620888 40.664782 
L 204.044355 43.90959 
L 209.467822 47.441268 
L 214.891289 51.228312 
L 221.218667 55.924101 
L 228.449956 61.586663 
L 237.489068 68.976744 
L 265.510313 92.16879 
L 272.741603 97.750435 
L 279.068981 102.355362 
L 284.492448 106.050487 
L 289.915915 109.478149 
L 295.339381 112.607772 
L 299.858937 114.967894 
L 304.378493 117.086982 
L 308.898049 118.951905 
L 313.417605 120.551107 
L 317.93716 121.874679 
L 321.552805 122.729514 
L 325.16845 123.399272 
L 328.784094 123.881298 
L 332.399739 124.173679 
L 336.015383 124.275255 
L 339.631028 124.185625 
L 343.246673 123.905143 
L 346.862317 123.434922 
L 350.477962 122.776827 
L 354.093606 121.933468 
L 358.613162 120.623907 
L 363.132718 119.038265 
L 367.652274 117.186367 
L 372.17183 115.079688 
L 376.691385 112.731282 
L 381.210941 110.1557 
L 381.210941 110.1557 
" clip-path="url(#pc2d90361cb)" style="fill: none; stroke: #2a78b8; stroke-width: 2.2; stroke-linecap: square"/>
   </g>
   <g id="line2d_9">
    <path d="M 20.550391 246.638144 
L 28.685591 244.796446 
L 37.724703 242.508859 
L 48.571636 239.506307 
L 63.034215 235.24312 
L 84.728083 228.841531 
L 95.575016 225.884797 
L 104.614128 223.65001 
L 112.749328 221.866061 
L 119.980618 220.491403 
L 127.211907 219.338205 
L 134.443196 218.424743 
L 140.770574 217.833603 
L 147.097952 217.444333 
L 153.42533 217.261657 
L 159.752708 217.287793 
L 166.080086 217.522424 
L 172.407465 217.962702 
L 178.734843 218.603282 
L 185.966132 219.570559 
L 193.197421 220.77389 
L 200.42871 222.194204 
L 208.563911 224.023265 
L 217.603022 226.299365 
L 227.546045 229.034111 
L 241.104712 233.008375 
L 266.414225 240.469076 
L 276.357247 243.160293 
L 285.396359 245.382963 
L 293.531559 247.153772 
L 300.762848 248.515193 
L 307.994138 249.653905 
L 315.225427 250.551861 
L 321.552805 251.128792 
L 327.880183 251.503433 
L 334.207561 251.671237 
L 340.534939 251.630168 
L 346.862317 251.380723 
L 353.189695 250.925932 
L 359.517073 250.271313 
L 366.748363 249.288794 
L 373.979652 248.071305 
L 381.210941 246.638144 
L 381.210941 246.638144 
" clip-path="url(#pc2d90361cb)" style="fill: none; stroke: #2a78b8; stroke-opacity: 0.92; stroke-width: 2.2; stroke-linecap: square"/>
   </g>
   <g id="patch_3">
    <path d="M 20.550391 299.888372 
L 20.550391 7.2 
" style="fill: none; stroke: #222222; stroke-width: 0.9; stroke-linejoin: miter; stroke-linecap: square"/>
   </g>
   <g id="patch_4">
    <path d="M 20.550391 299.888372 
L 381.210941 299.888372 
" style="fill: none; stroke: #222222; stroke-width: 0.9; stroke-linejoin: miter; stroke-linecap: square"/>
   </g>
   <g id="text_8">
    <text style="font-weight: 700; font-size: 15.5px; font-family: 'Helvetica', 'Arial', 'DejaVu Sans', sans-serif; text-anchor: start; fill: #222222" x="24.156996" y="24.172596" transform="rotate(-0 24.156996 24.172596)">A</text>
   </g>
   <g id="text_9">
    <text style="font-weight: 700; font-size: 12.2px; font-family: 'Helvetica', 'Arial', 'DejaVu Sans', sans-serif; text-anchor: start; fill: #222222" x="63.829657" y="21.929267" transform="rotate(-0 63.829657 21.929267)">Biological meaning of amplitude</text>
   </g>
   <g id="patch_5">
    <path d="M 155.798097 72.504748 
Q 155.798097 51.965012 155.798097 31.425276 
" style="fill: none; stroke: #d49400; stroke-width: 1.4; stroke-linecap: round"/>
    <path d="M 157.798097 68.504748 
L 155.798097 72.504748 
L 153.798097 68.504748 
" style="fill: none; stroke: #d49400; stroke-width: 1.4; stroke-linecap: round"/>
    <path d="M 153.798097 35.425276 
L 155.798097 31.425276 
L 157.798097 35.425276 
" style="fill: none; stroke: #d49400; stroke-width: 1.4; stroke-linecap: round"/>
   </g>
   <g id="patch_6">
    <path d="M 155.798097 230.902069 
Q 155.798097 225.858571 155.798097 220.815072 
" style="fill: none; stroke: #d49400; stroke-width: 1.4; stroke-linecap: round"/>
    <path d="M 157.798097 226.902069 
L 155.798097 230.902069 
L 153.798097 226.902069 
" style="fill: none; stroke: #d49400; stroke-width: 1.4; stroke-linecap: round"/>
    <path d="M 153.798097 224.815072 
L 155.798097 220.815072 
L 157.798097 224.815072 
" style="fill: none; stroke: #d49400; stroke-width: 1.4; stroke-linecap: round"/>
   </g>
   <g id="text_10">
    <text style="font-size: 10.2px; font-family: 'Helvetica', 'Arial', 'DejaVu Sans', sans-serif; text-anchor: start; fill: #222222" x="221.919198" y="40.785955" transform="rotate(-0 221.919198 40.785955)">robust circadian oscillator</text>
   </g>
   <g id="text_11">
    <text style="font-size: 10.2px; font-family: 'Helvetica', 'Arial', 'DejaVu Sans', sans-serif; text-anchor: start; fill: #222222" x="221.919198" y="212.967539" transform="rotate(-0 221.919198 212.967539)">damped circadian oscillator</text>
   </g>
   <g id="text_12">
    <text style="font-size: 10.1px; font-family: 'Helvetica', 'Arial', 'DejaVu Sans', sans-serif; text-anchor: middle; fill: #222222" x="200.880666" y="277.165561" transform="rotate(-0 200.880666 277.165561)">Circadian amplitude reflects oscillator strength</text>
   </g>
  </g>
  <g id="axes_2">
   <g id="patch_7">
    <path d="M 626.460115 247.448372 
C 651.363797 247.448372 675.25084 237.554035 692.860402 219.944473 
C 710.469964 202.334911 720.364301 178.447867 720.364301 153.544186 
C 720.364301 128.640505 710.469964 104.753461 692.860402 87.143899 
C 675.25084 69.534337 651.363797 59.64 626.460115 59.64 
C 601.556434 59.64 577.669391 69.534337 560.059829 87.143899 
C 542.450267 104.753461 532.555929 128.640505 532.555929 153.544186 
C 532.555929 178.447867 542.450267 202.334911 560.059829 219.944473 
C 577.669391 237.554035 601.556434 247.448372 626.460115 247.448372 
L 626.460115 247.448372 
z
" clip-path="url(#pa3d1b28560)" style="fill: none; stroke: #222222; stroke-width: 1.1; stroke-linejoin: miter"/>
   </g>
   <g id="line2d_10">
    <path d="M 626.460115 153.544186 
L 703.381921 99.682958 
" clip-path="url(#pa3d1b28560)" style="fill: none; stroke-dasharray: 2.85,2.85; stroke-dashoffset: 0; stroke: #c9c9c9; stroke-width: 0.95"/>
   </g>
   <g id="patch_8">
    <path d="M 726.750525 126.555479 
Q 727.317369 95.312191 701.197455 80.859138 
" style="fill: none; stroke: #757575; stroke-width: 1.25; stroke-linecap: round"/>
    <path d="M 703.729065 84.545729 
L 701.197455 80.859138 
L 705.665694 81.045805 
" style="fill: none; stroke: #757575; stroke-width: 1.25; stroke-linecap: round"/>
   </g>
   <g id="patch_9">
    <path d="M 715.362851 99.977994 
Q 705.157789 66.141949 671.813453 59.790878 
" style="fill: none; stroke: #757575; stroke-width: 1.25; stroke-linecap: round"/>
    <path d="M 675.368601 62.50398 
L 671.813453 59.790878 
L 676.117023 58.574621 
" style="fill: none; stroke: #757575; stroke-width: 1.25; stroke-linecap: round"/>
   </g>
   <g id="text_13">
    <text style="font-weight: 700; font-size: 15.5px; font-family: 'Helvetica', 'Arial', 'DejaVu Sans', sans-serif; text-anchor: start; fill: #222222" x="483.042813" y="24.172596" transform="rotate(-0 483.042813 24.172596)">B</text>
   </g>
   <g id="text_14">
    <text style="font-weight: 700; font-size: 12.2px; font-family: 'Helvetica', 'Arial', 'DejaVu Sans', sans-serif; text-anchor: start; fill: #222222" x="515.238534" y="21.929267" transform="rotate(-0 515.238534 21.929267)">Phase is a harder inference problem</text>
   </g>
   <g id="PathCollection_1">
    <defs>
     <path id="m76d6616529" d="M 0 2.915476 
C 0.773193 2.915476 1.514823 2.608283 2.061553 2.061553 
C 2.608283 1.514823 2.915476 0.773193 2.915476 0 
C 2.915476 -0.773193 2.608283 -1.514823 2.061553 -2.061553 
C 1.514823 -2.608283 0.773193 -2.915476 0 -2.915476 
C -0.773193 -2.915476 -1.514823 -2.608283 -2.061553 -2.061553 
C -2.608283 -1.514823 -2.915476 -0.773193 -2.915476 0 
C -2.915476 0.773193 -2.608283 1.514823 -2.061553 2.061553 
C -1.514823 2.608283 -0.773193 2.915476 0 2.915476 
z
" style="stroke: #ffffff; stroke-width: 0.55"/>
    </defs>
    <g clip-path="url(#pa3d1b28560)">
     <use xlink:href="#m76d6616529" x="712.288764" y="125.656768" style="fill: #2a78b8; stroke: #ffffff; stroke-width: 0.55"/>
     <use xlink:href="#m76d6616529" x="712.245858" y="115.349913" style="fill: #2a78b8; stroke: #ffffff; stroke-width: 0.55"/>
     <use xlink:href="#m76d6616529" x="705.67123" y="107.811628" style="fill: #2a78b8; stroke: #ffffff; stroke-width: 0.55"/>
     <use xlink:href="#m76d6616529" x="704.403447" y="96.915041" style="fill: #2a78b8; stroke: #ffffff; stroke-width: 0.55"/>
     <use xlink:href="#m76d6616529" x="693.131874" y="89.160017" style="fill: #2a78b8; stroke: #ffffff; stroke-width: 0.55"/>
     <use xlink:href="#m76d6616529" x="685.024126" y="78.585671" style="fill: #2a78b8; stroke: #ffffff; stroke-width: 0.55"/>
     <use xlink:href="#m76d6616529" x="672.192674" y="74.333072" style="fill: #2a78b8; stroke: #ffffff; stroke-width: 0.55"/>
    </g>
   </g>
   <g id="patch_10">
    <path d="M 709.185632 108.229752 
Q 707.406687 105.610001 705.627742 102.99025 
" style="fill: none; stroke: #222222; stroke-width: 0.9; stroke-linecap: round"/>
   </g>
   <g id="text_15">
    <text style="font-size: 10px; font-family: 'Helvetica', 'Arial', 'DejaVu Sans', sans-serif; text-anchor: start; fill: #222222" x="692.314999" y="120.733924" transform="rotate(-0 692.314999 120.733924)">true phase</text>
   </g>
   <g id="text_16">
    <text style="font-size: 10px; font-family: 'Helvetica', 'Arial', 'DejaVu Sans', sans-serif; text-anchor: middle; fill: #222222" x="626.460115" y="275.455465" transform="rotate(-0 626.460115 275.455465)">Phase requires identifying one exact angle</text>
   </g>
   <g id="PathCollection_2">
    <defs>
     <path id="m9fde374998" d="M 0 4.1833 
C 1.109424 4.1833 2.173559 3.742521 2.95804 2.95804 
C 3.742521 2.173559 4.1833 1.109424 4.1833 0 
C 4.1833 -1.109424 3.742521 -2.173559 2.95804 -2.95804 
C 2.173559 -3.742521 1.109424 -4.1833 0 -4.1833 
C -1.109424 -4.1833 -2.173559 -3.742521 -2.95804 -2.95804 
C -3.742521 -2.173559 -4.1833 -1.109424 -4.1833 0 
C -4.1833 1.109424 -3.742521 2.173559 -2.95804 2.95804 
C -2.173559 3.742521 -1.109424 4.1833 0 4.1833 
z
" style="stroke: #222222; stroke-width: 0.8"/>
    </defs>
    <g clip-path="url(#pa3d1b28560)">
     <use xlink:href="#m9fde374998" x="703.381921" y="99.682958" style="fill: #d49400; stroke: #222222; stroke-width: 0.8"/>
    </g>
   </g>
  </g>
  <g id="axes_3">
   <g id="patch_11">
    <path d="M 200.880666 604.528186 
C 225.784347 604.528186 249.671391 594.633849 267.280953 577.024287 
C 284.890514 559.414725 294.784852 535.527681 294.784852 510.624 
C 294.784852 485.720319 284.890514 461.833275 267.280953 444.223713 
C 249.671391 426.614151 225.784347 416.719814 200.880666 416.719814 
C 175.976985 416.719814 152.089941 426.614151 134.480379 444.223713 
C 116.870817 461.833275 106.97648 485.720319 106.97648 510.624 
C 106.97648 535.527681 116.870817 559.414725 134.480379 577.024287 
C 152.089941 594.633849 175.976985 604.528186 200.880666 604.528186 
L 200.880666 604.528186 
z
" clip-path="url(#p45a845a51f)" style="fill: none; stroke: #222222; stroke-width: 1.1; stroke-linejoin: miter"/>
   </g>
   <g id="line2d_11">
    <path d="M 200.880666 510.624 
L 291.539935 491.353777 
" clip-path="url(#p45a845a51f)" style="fill: none; stroke: #c9c9c9; stroke-width: 0.9; stroke-linecap: square"/>
   </g>
   <g id="line2d_12">
    <path d="M 200.880666 510.624 
L 229.898655 421.315812 
" clip-path="url(#p45a845a51f)" style="fill: none; stroke: #c9c9c9; stroke-width: 0.9; stroke-linecap: square"/>
   </g>
   <g id="line2d_13">
    <path d="M 200.880666 510.624 
L 124.041608 458.795401 
" clip-path="url(#p45a845a51f)" style="fill: none; stroke: #c9c9c9; stroke-width: 0.9; stroke-linecap: square"/>
   </g>
   <g id="line2d_14">
    <path d="M 200.880666 510.624 
L 133.815129 571.010081 
" clip-path="url(#p45a845a51f)" style="fill: none; stroke: #c9c9c9; stroke-width: 0.9; stroke-linecap: square"/>
   </g>
   <g id="line2d_15">
    <path d="M 200.880666 510.624 
L 239.907116 590.640081 
" clip-path="url(#p45a845a51f)" style="fill: none; stroke: #c9c9c9; stroke-width: 0.9; stroke-linecap: square"/>
   </g>
   <g id="line2d_16">
    <path d="M 200.880666 510.624 
L 229.898655 421.315812 
" clip-path="url(#p45a845a51f)" style="fill: none; stroke: #d49400; stroke-width: 2.4; stroke-linecap: round"/>
   </g>
   <g id="text_17">
    <text style="font-weight: 700; font-size: 15.5px; font-family: 'Helvetica', 'Arial', 'DejaVu Sans', sans-serif; text-anchor: start; fill: #222222" x="57.463364" y="381.25241" transform="rotate(-0 57.463364 381.25241)">C</text>
   </g>
   <g id="text_18">
    <text style="font-weight: 700; font-size: 12.2px; font-family: 'Helvetica', 'Arial', 'DejaVu Sans', sans-serif; text-anchor: start; fill: #222222" x="89.659084" y="378.913769" transform="rotate(-0 89.659084 378.913769)">Amplitude is phase-invariant</text>
   </g>
   <g id="PathCollection_3">
    <defs>
     <path id="mc8f0860755" d="M 0 3 
C 0.795609 3 1.55874 2.683901 2.12132 2.12132 
C 2.683901 1.55874 3 0.795609 3 0 
C 3 -0.795609 2.683901 -1.55874 2.12132 -2.12132 
C 1.55874 -2.683901 0.795609 -3 0 -3 
C -0.795609 -3 -1.55874 -2.683901 -2.12132 -2.12132 
C -2.683901 -1.55874 -3 -0.795609 -3 0 
C -3 0.795609 -2.683901 1.55874 -2.12132 2.12132 
C -1.55874 2.683901 -0.795609 3 0 3 
z
" style="stroke: #ffffff; stroke-width: 0.55"/>
    </defs>
    <g clip-path="url(#p45a845a51f)">
     <use xlink:href="#mc8f0860755" x="291.539935" y="491.353777" style="fill: #2a78b8; stroke: #ffffff; stroke-width: 0.55"/>
     <use xlink:href="#mc8f0860755" x="271.034148" y="455.814093" style="fill: #2a78b8; stroke: #ffffff; stroke-width: 0.55"/>
     <use xlink:href="#mc8f0860755" x="229.898655" y="421.315812" style="fill: #2a78b8; stroke: #ffffff; stroke-width: 0.55"/>
     <use xlink:href="#mc8f0860755" x="172.993248" y="424.795352" style="fill: #2a78b8; stroke: #ffffff; stroke-width: 0.55"/>
     <use xlink:href="#mc8f0860755" x="124.041608" y="458.795401" style="fill: #2a78b8; stroke: #ffffff; stroke-width: 0.55"/>
     <use xlink:href="#mc8f0860755" x="109.638354" y="517.004284" style="fill: #2a78b8; stroke: #ffffff; stroke-width: 0.55"/>
     <use xlink:href="#mc8f0860755" x="133.815129" y="571.010081" style="fill: #2a78b8; stroke: #ffffff; stroke-width: 0.55"/>
     <use xlink:href="#mc8f0860755" x="181.356888" y="602.476154" style="fill: #2a78b8; stroke: #ffffff; stroke-width: 0.55"/>
     <use xlink:href="#mc8f0860755" x="239.907116" y="590.640081" style="fill: #2a78b8; stroke: #ffffff; stroke-width: 0.55"/>
     <use xlink:href="#mc8f0860755" x="282.716355" y="554.136808" style="fill: #2a78b8; stroke: #ffffff; stroke-width: 0.55"/>
    </g>
   </g>
   <g id="patch_12">
    <path d="M 261.959405 461.949264 
Q 241.686837 460.933812 221.414269 459.91836 
" style="fill: none; stroke: #d49400; stroke-linecap: round"/>
   </g>
   <g id="text_19">
    <text style="font-size: 10px; font-family: 'Helvetica', 'Arial', 'DejaVu Sans', sans-serif; text-anchor: start; fill: #d49400" x="267.955084" y="466.884799" transform="rotate(-0 267.955084 466.884799)">Amplitude (radius)</text>
   </g>
   <g id="text_20">
    <text style="font-size: 10px; font-family: 'Helvetica', 'Arial', 'DejaVu Sans', sans-serif; text-anchor: middle; fill: #222222" x="200.880666" y="632.433717" transform="rotate(-0 200.880666 632.433717)">Phase shifts rotate observations but radius remains constant</text>
   </g>
   <g id="PathCollection_4">
    <defs>
     <path id="m6233e2b47f" d="M 0 1.732051 
C 0.459345 1.732051 0.899939 1.549551 1.224745 1.224745 
C 1.549551 0.899939 1.732051 0.459345 1.732051 0 
C 1.732051 -0.459345 1.549551 -0.899939 1.224745 -1.224745 
C 0.899939 -1.549551 0.459345 -1.732051 0 -1.732051 
C -0.459345 -1.732051 -0.899939 -1.549551 -1.224745 -1.224745 
C -1.549551 -0.899939 -1.732051 -0.459345 -1.732051 0 
C -1.732051 0.459345 -1.549551 0.899939 -1.224745 1.224745 
C -0.899939 1.549551 -0.459345 1.732051 0 1.732051 
z
" style="stroke: #222222"/>
    </defs>
    <g clip-path="url(#p45a845a51f)">
     <use xlink:href="#m6233e2b47f" x="200.880666" y="510.624" style="fill: #222222; stroke: #222222"/>
    </g>
   </g>
  </g>
  <g id="axes_4">
   <g id="patch_13">
    <path d="M 558.166162 559.405395 
C 571.749988 559.405395 584.779285 554.008484 594.3845 544.403268 
C 603.989716 534.798053 609.386627 521.768756 609.386627 508.18493 
C 609.386627 494.601104 603.989716 481.571808 594.3845 471.966592 
C 584.779285 462.361376 571.749988 456.964465 558.166162 456.964465 
C 544.582336 456.964465 531.553039 462.361376 521.947824 471.966592 
C 512.342608 481.571808 506.945697 494.601104 506.945697 508.18493 
C 506.945697 521.768756 512.342608 534.798053 521.947824 544.403268 
C 531.553039 554.008484 544.582336 559.405395 558.166162 559.405395 
L 558.166162 559.405395 
z
" clip-path="url(#p49caeeafa5)" style="fill: none; stroke: #222222; stroke-width: 1.1; stroke-linejoin: miter"/>
   </g>
   <g id="line2d_17">
    <path d="M 558.166162 508.18493 
L 606.764302 497.855077 
" clip-path="url(#p49caeeafa5)" style="fill: none; stroke: #c9c9c9; stroke-width: 0.9; stroke-linecap: square"/>
   </g>
   <g id="line2d_18">
    <path d="M 558.166162 508.18493 
L 512.777705 487.976687 
" clip-path="url(#p49caeeafa5)" style="fill: none; stroke: #c9c9c9; stroke-width: 0.9; stroke-linecap: square"/>
   </g>
   <g id="line2d_19">
    <path d="M 558.166162 508.18493 
L 583.008087 551.212407 
" clip-path="url(#p49caeeafa5)" style="fill: none; stroke: #c9c9c9; stroke-width: 0.9; stroke-linecap: square"/>
   </g>
   <g id="patch_14">
    <path d="M 694.754069 559.405395 
C 708.337895 559.405395 721.367192 554.008484 730.972407 544.403268 
C 740.577623 534.798053 745.974534 521.768756 745.974534 508.18493 
C 745.974534 494.601104 740.577623 481.571808 730.972407 471.966592 
C 721.367192 462.361376 708.337895 456.964465 694.754069 456.964465 
C 681.170243 456.964465 668.140946 462.361376 658.535731 471.966592 
C 648.930515 481.571808 643.533604 494.601104 643.533604 508.18493 
C 643.533604 521.768756 648.930515 534.798053 658.535731 544.403268 
C 668.140946 554.008484 681.170243 559.405395 694.754069 559.405395 
L 694.754069 559.405395 
z
" clip-path="url(#p49caeeafa5)" style="fill: none; stroke: #222222; stroke-width: 1.1; stroke-linejoin: miter"/>
   </g>
   <g id="line2d_20">
    <path d="M 558.166162 508.18493 
L 608.267337 497.535597 
" clip-path="url(#p49caeeafa5)" style="fill: none; stroke: #d49400; stroke-width: 2.2; stroke-linecap: round"/>
   </g>
   <g id="line2d_21">
    <path d="M 694.754069 508.18493 
L 711.982635 499.024339 
" clip-path="url(#p49caeeafa5)" style="fill: none; stroke-dasharray: 3,2; stroke-dashoffset: 0; stroke: #757575"/>
   </g>
   <g id="line2d_22">
    <path d="M 694.754069 508.18493 
L 716.505054 488.600255 
" clip-path="url(#p49caeeafa5)" style="fill: none; stroke-dasharray: 3,2; stroke-dashoffset: 0; stroke: #757575"/>
   </g>
   <g id="line2d_23">
    <path d="M 694.754069 508.18493 
L 716.080485 474.05553 
" clip-path="url(#p49caeeafa5)" style="fill: none; stroke-dasharray: 3,2; stroke-dashoffset: 0; stroke: #757575"/>
   </g>
   <g id="patch_15">
    <path d="M 707.516553 502.384352 
Q 717.489114 488.544278 711.027848 473.970298 
" style="fill: none; stroke: #757575; stroke-linecap: round"/>
    <path d="M 710.820667 478.437632 
L 711.027848 473.970298 
L 714.477407 476.816444 
" style="fill: none; stroke: #757575; stroke-linecap: round"/>
   </g>
   <g id="text_21">
    <text style="font-weight: 700; font-size: 15.5px; font-family: 'Helvetica', 'Arial', 'DejaVu Sans', sans-serif; text-anchor: start; fill: #222222" x="483.042813" y="381.25241" transform="rotate(-0 483.042813 381.25241)">D</text>
   </g>
   <g id="text_22">
    <text style="font-weight: 700; font-size: 12.2px; font-family: 'Helvetica', 'Arial', 'DejaVu Sans', sans-serif; text-anchor: start; fill: #222222" x="515.238534" y="379.123456" transform="rotate(-0 515.238534 379.123456)">Sparse gene panel problem</text>
   </g>
   <g id="PathCollection_5">
    <g clip-path="url(#p49caeeafa5)">
     <use xlink:href="#m76d6616529" x="606.764302" y="497.855077" style="fill: #2a78b8; stroke: #ffffff; stroke-width: 0.55"/>
     <use xlink:href="#m76d6616529" x="563.359539" y="458.773252" style="fill: #2a78b8; stroke: #ffffff; stroke-width: 0.55"/>
     <use xlink:href="#m76d6616529" x="512.777705" y="487.976687" style="fill: #2a78b8; stroke: #ffffff; stroke-width: 0.55"/>
     <use xlink:href="#m76d6616529" x="524.921176" y="545.107227" style="fill: #2a78b8; stroke: #ffffff; stroke-width: 0.55"/>
     <use xlink:href="#m76d6616529" x="583.008087" y="551.212407" style="fill: #2a78b8; stroke: #ffffff; stroke-width: 0.55"/>
    </g>
   </g>
   <g id="PathCollection_6">
    <g clip-path="url(#p49caeeafa5)">
     <use xlink:href="#m76d6616529" x="742.006219" y="492.831776" style="fill: #2a78b8; stroke: #ffffff; stroke-width: 0.55"/>
     <use xlink:href="#m76d6616529" x="737.781546" y="483.343005" style="fill: #2a78b8; stroke: #ffffff; stroke-width: 0.55"/>
     <use xlink:href="#m76d6616529" x="731.676366" y="474.939945" style="fill: #2a78b8; stroke: #ffffff; stroke-width: 0.55"/>
     <use xlink:href="#m76d6616529" x="722.536926" y="466.995151" style="fill: #2a78b8; stroke: #ffffff; stroke-width: 0.55"/>
     <use xlink:href="#m76d6616529" x="711.746947" y="461.497382" style="fill: #2a78b8; stroke: #ffffff; stroke-width: 0.55"/>
    </g>
   </g>
   <g id="text_23">
    <text style="font-size: 9.6px; font-family: 'Helvetica', 'Arial', 'DejaVu Sans', sans-serif; text-anchor: middle; fill: #222222" x="558.166162" y="599.241837" transform="rotate(-0 558.166162 599.241837)">phase-spanning gene panel</text>
   </g>
   <g id="text_24">
    <text style="font-size: 9.6px; font-family: 'Helvetica', 'Arial', 'DejaVu Sans', sans-serif; text-anchor: middle; fill: #222222" x="694.754069" y="599.241837" transform="rotate(-0 694.754069 599.241837)">clustered panel</text>
   </g>
   <g id="text_25">
    <text style="font-size: 10px; font-family: 'Helvetica', 'Arial', 'DejaVu Sans', sans-serif; fill: #222222" transform="translate(562.562459 642.341558)">Goal: smallest marker set (k)</text>
    <text style="font-size: 10px; font-family: 'Helvetica', 'Arial', 'DejaVu Sans', sans-serif; fill: #222222" transform="translate(552.817147 653.062183)">that stabilizes amplitude estimate</text>
   </g>
  </g>
  <g id="axes_5">
   <g id="patch_16">
    <path d="M 20.550391 1014.048 
L 381.210941 1014.048 
L 381.210941 721.359628 
L 20.550391 721.359628 
z
" style="fill: #ffffff"/>
   </g>
   <g id="line2d_24">
    <path d="M 174.431986 910.569811 
L 163.315481 895.881568 
" clip-path="url(#p129e7c8067)" style="fill: none; stroke: #c9c9c9; stroke-width: 0.9; stroke-linecap: square"/>
   </g>
   <g id="line2d_25">
    <path d="M 207.012724 866.759025 
L 208.267656 868.417167 
" clip-path="url(#p129e7c8067)" style="fill: none; stroke: #c9c9c9; stroke-width: 0.9; stroke-linecap: square"/>
   </g>
   <g id="line2d_26">
    <path d="M 187.205166 837.373303 
L 209.930979 867.400929 
" clip-path="url(#p129e7c8067)" style="fill: none; stroke: #c9c9c9; stroke-width: 0.9; stroke-linecap: square"/>
   </g>
   <g id="matplotlib.axis_3">
    <g id="text_26">
     <text style="font-size: 10px; font-family: 'Helvetica', 'Arial', 'DejaVu Sans', sans-serif; text-anchor: middle; fill: #222222" x="200.880666" y="1025.093312" transform="rotate(-0 200.880666 1025.093312)">gene space</text>
    </g>
   </g>
   <g id="matplotlib.axis_4"/>
   <g id="line2d_27">
    <path d="M 75.812376 949.34328 
L 325.948955 796.517504 
" clip-path="url(#p129e7c8067)" style="fill: none; stroke: #222222; stroke-width: 1.2; stroke-linecap: square"/>
   </g>
   <g id="patch_17">
    <path d="M 20.550391 1014.048 
L 20.550391 721.359628 
" style="fill: none; stroke: #222222; stroke-width: 0.9; stroke-linejoin: miter; stroke-linecap: square"/>
   </g>
   <g id="patch_18">
    <path d="M 20.550391 1014.048 
L 381.210941 1014.048 
" style="fill: none; stroke: #222222; stroke-width: 0.9; stroke-linejoin: miter; stroke-linecap: square"/>
   </g>
   <g id="text_27">
    <text style="font-weight: 700; font-size: 15.5px; font-family: 'Helvetica', 'Arial', 'DejaVu Sans', sans-serif; text-anchor: start; fill: #222222" x="24.156996" y="738.332223" transform="rotate(-0 24.156996 738.332223)">E</text>
   </g>
   <g id="text_28">
    <text style="font-weight: 700; font-size: 12.2px; font-family: 'Helvetica', 'Arial', 'DejaVu Sans', sans-serif; text-anchor: start; fill: #222222" x="63.829657" y="736.20327" transform="rotate(-0 63.829657 736.20327)">What partial least squares (PLS) does</text>
   </g>
   <g id="PathCollection_7">
    <defs>
     <path id="m999769e32c" d="M 0 2.915476 
C 0.773193 2.915476 1.514823 2.608283 2.061553 2.061553 
C 2.608283 1.514823 2.915476 0.773193 2.915476 0 
C 2.915476 -0.773193 2.608283 -1.514823 2.061553 -2.061553 
C 1.514823 -2.608283 0.773193 -2.915476 0 -2.915476 
C -0.773193 -2.915476 -1.514823 -2.608283 -2.061553 -2.061553 
C -2.608283 -1.514823 -2.915476 -0.773193 -2.915476 0 
C -2.915476 0.773193 -2.608283 1.514823 -2.061553 2.061553 
C -1.514823 2.608283 -0.773193 2.915476 0 2.915476 
z
" style="stroke: #ffffff; stroke-opacity: 0.95; stroke-width: 0.45"/>
    </defs>
    <g clip-path="url(#p129e7c8067)">
     <use xlink:href="#m999769e32c" x="200.952225" y="873.951346" style="fill: #2a78b8; fill-opacity: 0.95; stroke: #ffffff; stroke-opacity: 0.95; stroke-width: 0.45"/>
     <use xlink:href="#m999769e32c" x="218.259009" y="859.825441" style="fill: #2a78b8; fill-opacity: 0.95; stroke: #ffffff; stroke-opacity: 0.95; stroke-width: 0.45"/>
     <use xlink:href="#m999769e32c" x="184.933777" y="916.262423" style="fill: #2a78b8; fill-opacity: 0.95; stroke: #ffffff; stroke-opacity: 0.95; stroke-width: 0.45"/>
     <use xlink:href="#m999769e32c" x="149.073998" y="915.070139" style="fill: #2a78b8; fill-opacity: 0.95; stroke: #ffffff; stroke-opacity: 0.95; stroke-width: 0.45"/>
     <use xlink:href="#m999769e32c" x="174.431986" y="910.569811" style="fill: #2a78b8; fill-opacity: 0.95; stroke: #ffffff; stroke-opacity: 0.95; stroke-width: 0.45"/>
     <use xlink:href="#m999769e32c" x="143.195538" y="925.929529" style="fill: #2a78b8; fill-opacity: 0.95; stroke: #ffffff; stroke-opacity: 0.95; stroke-width: 0.45"/>
     <use xlink:href="#m999769e32c" x="204.379283" y="847.504393" style="fill: #2a78b8; fill-opacity: 0.95; stroke: #ffffff; stroke-opacity: 0.95; stroke-width: 0.45"/>
     <use xlink:href="#m999769e32c" x="278.842403" y="843.024863" style="fill: #2a78b8; fill-opacity: 0.95; stroke: #ffffff; stroke-opacity: 0.95; stroke-width: 0.45"/>
     <use xlink:href="#m999769e32c" x="172.248493" y="891.137676" style="fill: #2a78b8; fill-opacity: 0.95; stroke: #ffffff; stroke-opacity: 0.95; stroke-width: 0.45"/>
     <use xlink:href="#m999769e32c" x="164.786985" y="875.568726" style="fill: #2a78b8; fill-opacity: 0.95; stroke: #ffffff; stroke-opacity: 0.95; stroke-width: 0.45"/>
     <use xlink:href="#m999769e32c" x="229.375295" y="868.332027" style="fill: #2a78b8; fill-opacity: 0.95; stroke: #ffffff; stroke-opacity: 0.95; stroke-width: 0.45"/>
     <use xlink:href="#m999769e32c" x="221.64116" y="862.698407" style="fill: #2a78b8; fill-opacity: 0.95; stroke: #ffffff; stroke-opacity: 0.95; stroke-width: 0.45"/>
     <use xlink:href="#m999769e32c" x="207.012724" y="866.759025" style="fill: #2a78b8; fill-opacity: 0.95; stroke: #ffffff; stroke-opacity: 0.95; stroke-width: 0.45"/>
     <use xlink:href="#m999769e32c" x="146.754357" y="904.599793" style="fill: #2a78b8; fill-opacity: 0.95; stroke: #ffffff; stroke-opacity: 0.95; stroke-width: 0.45"/>
     <use xlink:href="#m999769e32c" x="199.179056" y="900.861993" style="fill: #2a78b8; fill-opacity: 0.95; stroke: #ffffff; stroke-opacity: 0.95; stroke-width: 0.45"/>
     <use xlink:href="#m999769e32c" x="241.327187" y="846.547406" style="fill: #2a78b8; fill-opacity: 0.95; stroke: #ffffff; stroke-opacity: 0.95; stroke-width: 0.45"/>
     <use xlink:href="#m999769e32c" x="122.686285" y="890.876373" style="fill: #2a78b8; fill-opacity: 0.95; stroke: #ffffff; stroke-opacity: 0.95; stroke-width: 0.45"/>
     <use xlink:href="#m999769e32c" x="174.260674" y="923.156735" style="fill: #2a78b8; fill-opacity: 0.95; stroke: #ffffff; stroke-opacity: 0.95; stroke-width: 0.45"/>
     <use xlink:href="#m999769e32c" x="90.28453" y="921.636389" style="fill: #2a78b8; fill-opacity: 0.95; stroke: #ffffff; stroke-opacity: 0.95; stroke-width: 0.45"/>
     <use xlink:href="#m999769e32c" x="125.866893" y="916.141491" style="fill: #2a78b8; fill-opacity: 0.95; stroke: #ffffff; stroke-opacity: 0.95; stroke-width: 0.45"/>
     <use xlink:href="#m999769e32c" x="93.744993" y="952.468321" style="fill: #2a78b8; fill-opacity: 0.95; stroke: #ffffff; stroke-opacity: 0.95; stroke-width: 0.45"/>
     <use xlink:href="#m999769e32c" x="187.205166" y="837.373303" style="fill: #2a78b8; fill-opacity: 0.95; stroke: #ffffff; stroke-opacity: 0.95; stroke-width: 0.45"/>
     <use xlink:href="#m999769e32c" x="127.151965" y="901.243525" style="fill: #2a78b8; fill-opacity: 0.95; stroke: #ffffff; stroke-opacity: 0.95; stroke-width: 0.45"/>
     <use xlink:href="#m999769e32c" x="216.6604" y="889.615802" style="fill: #2a78b8; fill-opacity: 0.95; stroke: #ffffff; stroke-opacity: 0.95; stroke-width: 0.45"/>
     <use xlink:href="#m999769e32c" x="209.999042" y="865.723591" style="fill: #2a78b8; fill-opacity: 0.95; stroke: #ffffff; stroke-opacity: 0.95; stroke-width: 0.45"/>
     <use xlink:href="#m999769e32c" x="190.006695" y="866.914779" style="fill: #2a78b8; fill-opacity: 0.95; stroke: #ffffff; stroke-opacity: 0.95; stroke-width: 0.45"/>
     <use xlink:href="#m999769e32c" x="54.478094" y="966.521947" style="fill: #2a78b8; fill-opacity: 0.95; stroke: #ffffff; stroke-opacity: 0.95; stroke-width: 0.45"/>
     <use xlink:href="#m999769e32c" x="169.544331" y="877.084939" style="fill: #2a78b8; fill-opacity: 0.95; stroke: #ffffff; stroke-opacity: 0.95; stroke-width: 0.45"/>
    </g>
   </g>
   <g id="text_29">
    <text style="font-size: 10px; font-family: 'Helvetica', 'Arial', 'DejaVu Sans', sans-serif; fill: #222222" transform="translate(327.857105 782.949351)">PLS latent</text>
    <text style="font-size: 10px; font-family: 'Helvetica', 'Arial', 'DejaVu Sans', sans-serif; fill: #222222" transform="translate(324.524293 793.641851)">component</text>
   </g>
   <g id="text_30">
    <text style="font-size: 10px; font-family: 'Helvetica', 'Arial', 'DejaVu Sans', sans-serif; fill: #222222" transform="translate(91.941603 980.498564)">PLS finds directions in gene space that maximize</text>
    <text style="font-size: 10px; font-family: 'Helvetica', 'Arial', 'DejaVu Sans', sans-serif; fill: #222222" transform="translate(129.457228 991.347314)">covariance with the target signal</text>
   </g>
   <g id="patch_19">
    <path d="M 184.04455 883.216742 
Q 200.880666 872.930392 216.571912 863.343522 
" style="fill: none; stroke: #222222; stroke-width: 1.2; stroke-linecap: round"/>
    <path d="M 212.115845 863.722298 
L 216.571912 863.343522 
L 214.201293 867.135641 
z
" style="fill: #222222; stroke: #222222; stroke-width: 1.2; stroke-linecap: round"/>
   </g>
  </g>
  <g id="axes_6">
   <g id="line2d_28">
    <path d="M 504.506627 879.899163 
L 748.413604 879.899163 
" clip-path="url(#pbf6dd7f345)" style="fill: none; stroke: #c9c9c9; stroke-linecap: square"/>
   </g>
   <g id="line2d_29">
    <path d="M 626.460115 989.657302 
L 626.460115 757.945674 
" clip-path="url(#pbf6dd7f345)" style="fill: none; stroke: #c9c9c9; stroke-linecap: square"/>
   </g>
   <g id="patch_20">
    <path d="M 626.460115 979.901023 
C 652.980919 979.901023 678.419069 969.364196 697.172109 950.611156 
C 715.925149 931.858117 726.461976 906.419966 726.461976 879.899163 
C 726.461976 853.378359 715.925149 827.940209 697.172109 809.187169 
C 678.419069 790.434129 652.980919 779.897302 626.460115 779.897302 
C 599.939312 779.897302 574.501162 790.434129 555.748122 809.187169 
C 536.995082 827.940209 526.458255 853.378359 526.458255 879.899163 
C 526.458255 906.419966 536.995082 931.858117 555.748122 950.611156 
C 574.501162 969.364196 599.939312 979.901023 626.460115 979.901023 
L 626.460115 979.901023 
z
" clip-path="url(#pbf6dd7f345)" style="fill: none; stroke-dasharray: 2.7,1.8; stroke-dashoffset: 0; stroke: #c9c9c9; stroke-width: 0.9; stroke-linejoin: miter"/>
   </g>
   <g id="line2d_30">
    <path d="M 626.460115 879.899163 
L 682.380446 796.993863 
" clip-path="url(#pbf6dd7f345)" style="fill: none; stroke: #d49400; stroke-width: 2.4; stroke-linecap: round"/>
   </g>
   <g id="patch_21">
    <path d="M 658.533273 877.930932 
Q 661.119408 861.470616 647.03988 854.883815 
" style="fill: none; stroke: #757575; stroke-linecap: round"/>
    <path d="M 649.815499 858.390371 
L 647.03988 854.883815 
L 651.510496 854.767253 
" style="fill: none; stroke: #757575; stroke-linecap: round"/>
   </g>
   <g id="text_31">
    <text style="font-weight: 700; font-size: 15.5px; font-family: 'Helvetica', 'Arial', 'DejaVu Sans', sans-serif; text-anchor: start; fill: #222222" x="483.042813" y="738.332223" transform="rotate(-0 483.042813 738.332223)">F</text>
   </g>
   <g id="text_32">
    <text style="font-weight: 700; font-size: 12.2px; font-family: 'Helvetica', 'Arial', 'DejaVu Sans', sans-serif; text-anchor: start; fill: #222222" x="515.238534" y="736.20327" transform="rotate(-0 515.238534 736.20327)">Circular partial least squares (cPLS)</text>
   </g>
   <g id="PathCollection_8">
    <g clip-path="url(#pbf6dd7f345)">
     <use xlink:href="#m76d6616529" x="727.681511" y="879.899163" style="fill: #2a78b8; stroke: #ffffff; stroke-width: 0.55"/>
     <use xlink:href="#m76d6616529" x="715.58816" y="840.216801" style="fill: #2a78b8; stroke: #ffffff; stroke-width: 0.55"/>
     <use xlink:href="#m76d6616529" x="693.374421" y="805.583298" style="fill: #2a78b8; stroke: #ffffff; stroke-width: 0.55"/>
     <use xlink:href="#m76d6616529" x="658.116104" y="782.472049" style="fill: #2a78b8; stroke: #ffffff; stroke-width: 0.55"/>
     <use xlink:href="#m76d6616529" x="616.134551" y="781.657977" style="fill: #2a78b8; stroke: #ffffff; stroke-width: 0.55"/>
     <use xlink:href="#m76d6616529" x="575.849418" y="792.238863" style="fill: #2a78b8; stroke: #ffffff; stroke-width: 0.55"/>
     <use xlink:href="#m76d6616529" x="547.53016" y="822.553193" style="fill: #2a78b8; stroke: #ffffff; stroke-width: 0.55"/>
     <use xlink:href="#m76d6616529" x="528.643536" y="859.107607" style="fill: #2a78b8; stroke: #ffffff; stroke-width: 0.55"/>
     <use xlink:href="#m76d6616529" x="526.257765" y="901.19783" style="fill: #2a78b8; stroke: #ffffff; stroke-width: 0.55"/>
     <use xlink:href="#m76d6616529" x="546.543535" y="937.961957" style="fill: #2a78b8; stroke: #ffffff; stroke-width: 0.55"/>
     <use xlink:href="#m76d6616529" x="575.849418" y="967.559463" style="fill: #2a78b8; stroke: #ffffff; stroke-width: 0.55"/>
     <use xlink:href="#m76d6616529" x="616.007075" y="979.353203" style="fill: #2a78b8; stroke: #ffffff; stroke-width: 0.55"/>
     <use xlink:href="#m76d6616529" x="656.608676" y="972.686891" style="fill: #2a78b8; stroke: #ffffff; stroke-width: 0.55"/>
     <use xlink:href="#m76d6616529" x="694.190449" y="955.121319" style="fill: #2a78b8; stroke: #ffffff; stroke-width: 0.55"/>
     <use xlink:href="#m76d6616529" x="717.816361" y="920.573584" style="fill: #2a78b8; stroke: #ffffff; stroke-width: 0.55"/>
    </g>
   </g>
   <g id="text_33">
    <!-- $r=\sqrt{x^2+y^2}$ -->
    <g style="fill: #222222" transform="translate(500.848022 769.842605)">
     <text>
      <tspan x="0" y="-0.98425" style="font-style: oblique; font-size: 11.2px; font-family: 'DejaVu Sans'; fill: #222222">r</tspan>
      <tspan x="28.951682" y="-1.36875" style="font-style: oblique; font-size: 11.2px; font-family: 'DejaVu Sans'; fill: #222222">x</tspan>
      <tspan x="55.221583" y="-1.36875" style="font-style: oblique; font-size: 11.2px; font-family: 'DejaVu Sans'; fill: #222222">y</tspan>
      <tspan x="6.817017" y="-0.98425" style="font-size: 11.2px; font-family: 'DejaVu Sans'; fill: #222222">=</tspan>
      <tspan x="43.603541" y="-1.36875" style="font-size: 11.2px; font-family: 'DejaVu Sans'; fill: #222222">+</tspan>
      <tspan x="18.435059" y="-1.35925" style="font-size: 8.656972px; font-family: 'STIXSizeOneSym'; fill: #222222">√</tspan>
      <tspan x="36.100672" y="-5.579688" style="font-size: 7.84px; font-family: 'DejaVu Sans'; fill: #222222">2</tspan>
      <tspan x="62.370574" y="-5.579688" style="font-size: 7.84px; font-family: 'DejaVu Sans'; fill: #222222">2</tspan>
     </text>
     <rect x="27.551682" y="-15.6" width="41.529989" height="0.7"/>
    </g>
   </g>
   <g id="text_34">
    <text style="font-size: 9.8px; font-family: 'Helvetica', 'Arial', 'DejaVu Sans', sans-serif; text-anchor: start; fill: #757575" x="500.848022" y="816.387515" transform="rotate(-0 500.848022 816.387515)">cPLS circular projection</text>
   </g>
   <g id="text_35">
    <text style="font-size: 9.7px; font-family: 'Helvetica', 'Arial', 'DejaVu Sans', sans-serif; fill: #222222" transform="translate(750.852674 879.577825)">x component</text>
    <text style="font-size: 9.7px; font-family: 'Helvetica', 'Arial', 'DejaVu Sans', sans-serif; fill: #222222" transform="translate(750.852674 890.035031)">(cosine)</text>
   </g>
   <g id="text_36">
    <text style="font-size: 9.3px; font-family: 'Helvetica', 'Arial', 'DejaVu Sans', sans-serif; fill: #222222" transform="translate(521.995697 772.755773)">y component</text>
    <text style="font-size: 9.3px; font-family: 'Helvetica', 'Arial', 'DejaVu Sans', sans-serif; fill: #222222" transform="translate(551.986744 782.836973)">(sine)</text>
   </g>
   <g id="text_37">
    <text style="font-size: 9.5px; font-family: 'Helvetica', 'Arial', 'DejaVu Sans', sans-serif; text-anchor: start; fill: #757575" x="648.411743" y="870.071392" transform="rotate(-0 648.411743 870.071392)">angle -&gt; phase</text>
   </g>
   <g id="patch_22">
    <path d="M 705.107481 950.197705 
Q 680.590673 896.144955 656.073864 842.092205 
" style="fill: none; stroke: #d49400; stroke-linecap: round"/>
   </g>
   <g id="text_38">
    <text style="font-size: 9.8px; font-family: 'Helvetica', 'Arial', 'DejaVu Sans', sans-serif; text-anchor: start; fill: #d49400" x="667.924301" y="962.89359" transform="rotate(-0 667.924301 962.89359)">radius -&gt; amplitude</text>
   </g>
   <g id="PathCollection_9">
    <g clip-path="url(#pbf6dd7f345)">
     <use xlink:href="#m6233e2b47f" x="626.460115" y="879.899163" style="fill: #222222; stroke: #222222"/>
    </g>
   </g>
  </g>
 </g>
 <defs>
  <clipPath id="pc2d90361cb">
   <rect x="20.550391" y="7.2" width="360.66055" height="292.688372"/>
  </clipPath>
  <clipPath id="pa3d1b28560">
   <rect x="480.115929" y="7.2" width="292.688372" height="292.688372"/>
  </clipPath>
  <clipPath id="p45a845a51f">
   <rect x="54.53648" y="364.279814" width="292.688372" height="292.688372"/>
  </clipPath>
  <clipPath id="p49caeeafa5">
   <rect x="480.115929" y="364.279814" width="292.688372" height="292.688372"/>
  </clipPath>
  <clipPath id="p129e7c8067">
   <rect x="20.550391" y="721.359628" width="360.66055" height="292.688372"/>
  </clipPath>
  <clipPath id="pbf6dd7f345">
   <rect x="480.115929" y="721.359628" width="292.688372" height="292.688372"/>
  </clipPath>
 </defs>
</svg>
