<svg xmlns="http://www.w3.org/2000/svg" viewBox="0 0 64 64" role="img" aria-labelledby="title">
  <title>Hops icon</title>
  <path fill="#5f8a2f" d="M32 6c-6 4-10 10-11 17-6 1-11 4-15 9 4 5 9 8 15 9 1 7 5 13 11 17 6-4 10-10 11-17 6-1 11-4 15-9-4-5-9-8-15-9-1-7-5-13-11-17Z"/>
  <path fill="#83b34a" d="M32 14c-3 3-5 7-6 11 3 0 5 1 6 3 1-2 3-3 6-3-1-4-3-8-6-11Zm-11 15c-3 1-6 3-8 6 3 2 6 3 9 3 0-3 1-5 3-6-2-1-3-2-4-3Zm22 0c-1 1-2 2-4 3 2 1 3 3 3 6 3 0 6-1 9-3-2-3-5-5-8-6Zm-11 8c-1 2-3 3-6 3 1 4 3 8 6 11 3-3 5-7 6-11-3 0-5-1-6-3Z"/>
</svg>
