<svg xmlns="http://www.w3.org/2000/svg" viewBox="0 0 600 420" role="img" aria-labelledby="title desc">
  <title id="title">Circadian transcriptome heatmap</title>
  <desc id="desc">A stylized heatmap representing rhythmic gene expression across tissues over a 24-hour cycle.</desc>
  <rect width="600" height="420" fill="#fffdf8"/>
  <rect x="0" y="0" width="600" height="420" fill="#f5f1e8"/>
  <g fill="#172229" font-family="Palatino Linotype, Georgia, serif" font-size="24">
    <text x="62" y="68">Multi-organ rhythmic expression</text>
  </g>
  <g fill="#5f6e73" font-family="Arial Narrow, sans-serif" font-size="14" letter-spacing="1.5">
    <text x="83" y="110">LIVER</text>
    <text x="83" y="156">HEART</text>
    <text x="83" y="202">BRAIN</text>
    <text x="83" y="248">LUNG</text>
    <text x="83" y="294">KIDNEY</text>
    <text x="83" y="340">MUSCLE</text>
  </g>
  <g fill="#5f6e73" font-family="Arial Narrow, sans-serif" font-size="12" letter-spacing="1.4">
    <text x="176" y="102">0</text>
    <text x="252" y="102">4</text>
    <text x="328" y="102">8</text>
    <text x="402" y="102">12</text>
    <text x="473" y="102">16</text>
    <text x="545" y="102">20</text>
  </g>
  <rect x="170" y="116" width="390" height="242" rx="10" fill="#fffdf8" stroke="#d6cec0" stroke-width="6"/>
  <g>
    <rect x="170" y="116" width="195" height="18" fill="#f0c768"/>
    <rect x="365" y="116" width="195" height="18" fill="#355c7d"/>
  </g>
  <g>
    <rect x="178" y="142" width="22" height="30" fill="#fae5a5"/>
    <rect x="204" y="142" width="22" height="30" fill="#f2c962"/>
    <rect x="230" y="142" width="22" height="30" fill="#d98d2b"/>
    <rect x="256" y="142" width="22" height="30" fill="#8ac8c0"/>
    <rect x="282" y="142" width="22" height="30" fill="#3f8f98"/>
    <rect x="308" y="142" width="22" height="30" fill="#1d5d6c"/>
    <rect x="334" y="142" width="22" height="30" fill="#30527a"/>
    <rect x="360" y="142" width="22" height="30" fill="#4b6fa6"/>
    <rect x="386" y="142" width="22" height="30" fill="#86b7d6"/>
    <rect x="412" y="142" width="22" height="30" fill="#d8ece8"/>
    <rect x="438" y="142" width="22" height="30" fill="#f4d278"/>
    <rect x="464" y="142" width="22" height="30" fill="#d98d2b"/>
    <rect x="490" y="142" width="22" height="30" fill="#7ab4c0"/>
    <rect x="516" y="142" width="22" height="30" fill="#2b4f73"/>
  </g>
  <g>
    <rect x="178" y="184" width="22" height="30" fill="#d8ece8"/>
    <rect x="204" y="184" width="22" height="30" fill="#f2c962"/>
    <rect x="230" y="184" width="22" height="30" fill="#d98d2b"/>
    <rect x="256" y="184" width="22" height="30" fill="#c16d2c"/>
    <rect x="282" y="184" width="22" height="30" fill="#6fb2bf"/>
    <rect x="308" y="184" width="22" height="30" fill="#2f7989"/>
    <rect x="334" y="184" width="22" height="30" fill="#1d5d6c"/>
    <rect x="360" y="184" width="22" height="30" fill="#8ac8c0"/>
    <rect x="386" y="184" width="22" height="30" fill="#e8f3f0"/>
    <rect x="412" y="184" width="22" height="30" fill="#f5d98d"/>
    <rect x="438" y="184" width="22" height="30" fill="#b1d8d1"/>
    <rect x="464" y="184" width="22" height="30" fill="#48709f"/>
    <rect x="490" y="184" width="22" height="30" fill="#31597e"/>
    <rect x="516" y="184" width="22" height="30" fill="#e1c35d"/>
  </g>
  <g>
    <rect x="178" y="226" width="22" height="30" fill="#4b6fa6"/>
    <rect x="204" y="226" width="22" height="30" fill="#8ac8c0"/>
    <rect x="230" y="226" width="22" height="30" fill="#e8f3f0"/>
    <rect x="256" y="226" width="22" height="30" fill="#f0c768"/>
    <rect x="282" y="226" width="22" height="30" fill="#d98d2b"/>
    <rect x="308" y="226" width="22" height="30" fill="#ac5d2d"/>
    <rect x="334" y="226" width="22" height="30" fill="#52739f"/>
    <rect x="360" y="226" width="22" height="30" fill="#b9ddd6"/>
    <rect x="386" y="226" width="22" height="30" fill="#f5d98d"/>
    <rect x="412" y="226" width="22" height="30" fill="#1d5d6c"/>
    <rect x="438" y="226" width="22" height="30" fill="#31597e"/>
    <rect x="464" y="226" width="22" height="30" fill="#7ab4c0"/>
    <rect x="490" y="226" width="22" height="30" fill="#f2c962"/>
    <rect x="516" y="226" width="22" height="30" fill="#d8ece8"/>
  </g>
  <g>
    <rect x="178" y="268" width="22" height="30" fill="#86b7d6"/>
    <rect x="204" y="268" width="22" height="30" fill="#48709f"/>
    <rect x="230" y="268" width="22" height="30" fill="#31597e"/>
    <rect x="256" y="268" width="22" height="30" fill="#7ab4c0"/>
    <rect x="282" y="268" width="22" height="30" fill="#e8f3f0"/>
    <rect x="308" y="268" width="22" height="30" fill="#f2c962"/>
    <rect x="334" y="268" width="22" height="30" fill="#d98d2b"/>
    <rect x="360" y="268" width="22" height="30" fill="#8ac8c0"/>
    <rect x="386" y="268" width="22" height="30" fill="#31597e"/>
    <rect x="412" y="268" width="22" height="30" fill="#1d5d6c"/>
    <rect x="438" y="268" width="22" height="30" fill="#b1d8d1"/>
    <rect x="464" y="268" width="22" height="30" fill="#f0c768"/>
    <rect x="490" y="268" width="22" height="30" fill="#d98d2b"/>
    <rect x="516" y="268" width="22" height="30" fill="#5d8f9d"/>
  </g>
  <g>
    <rect x="178" y="310" width="22" height="30" fill="#f2c962"/>
    <rect x="204" y="310" width="22" height="30" fill="#d98d2b"/>
    <rect x="230" y="310" width="22" height="30" fill="#8ac8c0"/>
    <rect x="256" y="310" width="22" height="30" fill="#31597e"/>
    <rect x="282" y="310" width="22" height="30" fill="#b1d8d1"/>
    <rect x="308" y="310" width="22" height="30" fill="#f5d98d"/>
    <rect x="334" y="310" width="22" height="30" fill="#1d5d6c"/>
    <rect x="360" y="310" width="22" height="30" fill="#30527a"/>
    <rect x="386" y="310" width="22" height="30" fill="#7ab4c0"/>
    <rect x="412" y="310" width="22" height="30" fill="#e8f3f0"/>
    <rect x="438" y="310" width="22" height="30" fill="#f2c962"/>
    <rect x="464" y="310" width="22" height="30" fill="#d98d2b"/>
    <rect x="490" y="310" width="22" height="30" fill="#3f8f98"/>
    <rect x="516" y="310" width="22" height="30" fill="#30527a"/>
  </g>
</svg>
